<svg width="100" height="100" viewBox="0 0 100 100" fill="none" xmlns="http://www.w3.org/2000/svg">
<g id="phone 1">
<path id="Vector" d="M91.6665 70.5001V83.0001C91.6712 84.1605 91.4335 85.3091 90.9686 86.3724C90.5037 87.4356 89.8219 88.39 88.9668 89.1745C88.1117 89.959 87.1022 90.5563 86.0029 90.928C84.9037 91.2998 83.7389 91.4379 82.5831 91.3334C69.7616 89.9402 57.4456 85.559 46.6248 78.5417C36.5574 72.1445 28.022 63.6091 21.6248 53.5417C14.583 42.6718 10.2008 30.2959 8.83314 17.4167C8.72901 16.2645 8.86595 15.1032 9.23522 14.0068C9.60449 12.9104 10.198 11.903 10.978 11.0485C11.758 10.194 12.7073 9.51137 13.7656 9.04392C14.8239 8.57647 15.9679 8.3345 17.1248 8.33341H29.6248C31.6469 8.31351 33.6073 9.02957 35.1405 10.3481C36.6737 11.6667 37.6751 13.4978 37.9581 15.5001C38.4857 19.5004 39.4642 23.4281 40.8748 27.2084C41.4354 28.6998 41.5567 30.3206 41.2244 31.8787C40.8921 33.4369 40.1201 34.8672 38.9998 36.0001L33.7081 41.2917C39.6396 51.7232 48.2767 60.3603 58.7081 66.2917L63.9998 61.0001C65.1327 59.8798 66.5629 59.1078 68.1211 58.7755C69.6793 58.4432 71.3001 58.5645 72.7915 59.1251C76.5718 60.5357 80.4995 61.5141 84.4998 62.0417C86.5238 62.3273 88.3723 63.3468 89.6937 64.9063C91.0151 66.4658 91.7172 68.4566 91.6665 70.5001Z" stroke="white" stroke-width="2" stroke-linecap="round" stroke-linejoin="round"/>
</g>
</svg>
